HIERARCHY
ROOT SpineBase
{
  OFFSET 0.000000 0.000000 0.000000
  CHANNELS 6 Xposition Yposition Zposition Zrotation Xrotation Yrotation
  JOINT SpineMid
  {
    OFFSET 0.000000 34.814647 0.000000
    CHANNELS 3 Zrotation Xrotation Yrotation
    JOINT SpineShoulder
    {
      OFFSET -0.286885 25.975270 -0.745120
      CHANNELS 3 Zrotation Xrotation Yrotation
      JOINT Neck
      {
        OFFSET -0.214382 8.629573 -0.619575
        CHANNELS 3 Zrotation Xrotation Yrotation
        JOINT Head
        {
          OFFSET 1.627014 8.573377 4.538474
          CHANNELS 3 Zrotation Xrotation Yrotation
          End Site
          {
            OFFSET 0 0 0
          }
        }
      }
      JOINT ShoulderLeft
      {
        OFFSET -14.437862 -6.186175 -4.390622
        CHANNELS 3 Zrotation Xrotation Yrotation
        JOINT ElbowLeft
        {
          OFFSET -6.235494 -27.311508 2.854476
          CHANNELS 3 Zrotation Xrotation Yrotation
          JOINT WristLeft
          {
            OFFSET -3.924157 -23.510678 6.815233
            CHANNELS 3 Zrotation Xrotation Yrotation
            JOINT HandLeft
            {
              OFFSET 0.172264 -6.882321 1.148157
              CHANNELS 3 Zrotation Xrotation Yrotation
              JOINT HandTipLeft
              {
                OFFSET 1.395120 -9.374525 2.216315
                CHANNELS 3 Zrotation Xrotation Yrotation
                End Site
                {
                  OFFSET 0 0 0
                }
              }
              JOINT ThumbLeft
              {
                OFFSET -2.707029 -1.712816 -2.159816
                CHANNELS 3 Zrotation Xrotation Yrotation
                End Site
                {
                  OFFSET 0 0 0
                }
              }
            }
          }
        }
      }
      JOINT ShoulderRight
      {
        OFFSET 14.809738 -6.318422 -5.743413
        CHANNELS 3 Zrotation Xrotation Yrotation
        JOINT ElbowRight
        {
          OFFSET 7.871127 -25.936104 6.437649
          CHANNELS 3 Zrotation Xrotation Yrotation
          JOINT WristRight
          {
            OFFSET 1.461347 -22.725553 5.759561
            CHANNELS 3 Zrotation Xrotation Yrotation
            JOINT HandRight
            {
              OFFSET 0.609801 -7.630646 3.719653
              CHANNELS 3 Zrotation Xrotation Yrotation
              JOINT HandTipRight
              {
                OFFSET 0.263841 -5.556824 0.004652
                CHANNELS 3 Zrotation Xrotation Yrotation
                End Site
                {
                  OFFSET 0 0 0
                }
              }
              JOINT ThumbRight
              {
                OFFSET 1.034652 -1.875468 -2.534441
                CHANNELS 3 Zrotation Xrotation Yrotation
                End Site
                {
                  OFFSET 0 0 0
                }
              }
            }
          }
        }
      }
    }
  }
  JOINT HipLeft
  {
    OFFSET -7.113033 1.748503 -3.269395
    CHANNELS 3 Zrotation Xrotation Yrotation
    JOINT KneeLeft
    {
      OFFSET -0.294624 -32.581191 -4.208446
      CHANNELS 3 Zrotation Xrotation Yrotation
      JOINT AnkleLeft
      {
        OFFSET -2.261831 -32.927134 -5.137512
        CHANNELS 3 Zrotation Xrotation Yrotation
        JOINT FootLeft
        {
          OFFSET 4.064424 -6.428629 -5.095250
          CHANNELS 3 Zrotation Xrotation Yrotation
          End Site
          {
            OFFSET 0 0 0
          }
        }
      }
    }
  }
  JOINT HipRight
  {
    OFFSET 5.040102 1.292544 -3.758142
    CHANNELS 3 Zrotation Xrotation Yrotation
    JOINT KneeRight
    {
      OFFSET 3.303655 -32.658156 -3.721251
      CHANNELS 3 Zrotation Xrotation Yrotation
      JOINT AnkleRight
      {
        OFFSET -0.166051 -31.285958 -3.265506
        CHANNELS 3 Zrotation Xrotation Yrotation
        JOINT FootRight
        {
          OFFSET -1.340172 -2.712423 -13.655345
          CHANNELS 3 Zrotation Xrotation Yrotation
          End Site
          {
            OFFSET 0 0 0
          }
        }
      }
    }
  }
}
MOTION
Frames: 6
Frame Time: 0.033333
85.179506 70.937376 289.846122 -0.108082 -0.205946 2.213207 0.115955 0.201618 -2.213605 -0.000000 0.000000 0.000000 -0.700431 -5.385486 1.393647 0.000000 0.000000 0.000000 -0.000000 0.000000 0.000000 2.198316 -2.645726 1.125801 -8.135500 14.521178 -0.854687 0.917481 -7.820889 -0.198556 0.000000 0.000000 0.000000 0.000000 0.000000 0.000000 -1.606906 1.214427 -0.013370 0.539776 -2.633778 -0.349473 3.661797 7.508297 1.953297 -8.225448 0.072017 -1.961011 0.000000 0.000000 0.000000 0.000000 0.000000 0.000000 0.115955 0.201618 -2.213605 -0.000000 0.000000 0.000000 -17.024763 27.932970 31.707768 0.000000 0.000000 0.000000 0.115955 0.201618 -2.213605 -0.000000 0.000000 0.000000 -0.000000 0.000000 0.000000 0.000000 0.000000 0.000000
85.181529 70.958928 289.878131 -0.102577 -0.185480 2.233173 0.109727 0.181342 -2.233513 -0.000000 0.000000 0.000000 -0.982897 -5.226116 1.501696 0.000000 0.000000 0.000000 -0.000000 0.000000 0.000000 2.648985 -3.401000 1.407750 -10.443554 20.266658 -0.537375 4.323369 -12.566969 0.830896 0.000000 0.000000 0.000000 0.000000 0.000000 0.000000 -1.532800 0.910991 -0.092378 0.290849 -2.351162 -0.326007 4.587954 7.038856 2.279229 -9.035134 0.161253 -2.306997 0.000000 0.000000 0.000000 0.000000 0.000000 0.000000 0.109727 0.181342 -2.233513 -0.000000 0.000000 0.000000 -14.905237 24.682005 27.869447 0.000000 0.000000 0.000000 0.109727 0.181342 -2.233513 -0.000000 0.000000 0.000000 -0.000000 0.000000 0.000000 0.000000 0.000000 0.000000
85.172743 70.983804 289.905853 -0.081949 -0.210852 2.345011 0.090508 0.207322 -2.345325 -0.000000 0.000000 0.000000 -1.006572 -4.873112 1.445457 0.000000 0.000000 0.000000 -0.000000 0.000000 0.000000 2.875481 -4.108816 1.612857 -11.301074 25.577301 -0.085089 6.541291 -17.749886 1.703992 0.000000 0.000000 0.000000 0.000000 0.000000 0.000000 -1.313657 0.532992 -0.158951 -0.080028 -2.015948 -0.308683 5.145088 7.002634 2.482042 -8.882029 -0.729560 -2.570725 0.000000 0.000000 0.000000 0.000000 0.000000 0.000000 0.090508 0.207322 -2.345325 -0.000000 0.000000 0.000000 -12.750917 20.287116 23.383359 0.000000 0.000000 0.000000 0.090508 0.207322 -2.345325 -0.000000 0.000000 0.000000 -0.000000 0.000000 0.000000 0.000000 0.000000 0.000000
85.166983 70.998380 289.950827 -0.094051 -0.206160 2.380206 0.102533 0.202076 -2.380556 -0.000000 0.000000 0.000000 -1.224358 -4.553472 1.492373 0.000000 0.000000 0.000000 -0.000000 0.000000 0.000000 2.870390 -4.911064 1.760896 -10.770095 31.140273 0.352662 10.443934 -24.602504 3.989794 0.000000 0.000000 0.000000 0.000000 0.000000 0.000000 -1.091715 0.512706 -0.110946 -0.524460 -1.983289 -0.418339 5.516953 6.367734 2.563911 -9.753522 1.385722 -2.408582 0.000000 0.000000 0.000000 0.000000 0.000000 0.000000 0.102533 0.202076 -2.380556 -0.000000 0.000000 0.000000 -10.296105 15.651092 18.431810 0.000000 0.000000 0.000000 0.102533 0.202076 -2.380556 -0.000000 0.000000 0.000000 -0.000000 0.000000 0.000000 0.000000 0.000000 0.000000
85.158934 71.012156 289.984391 -0.111012 -0.224987 2.490248 0.120684 0.219951 -2.490698 -0.000000 0.000000 0.000000 -0.843585 -4.354743 1.264964 0.000000 0.000000 0.000000 0.544188 0.818964 -0.134240 2.329821 -6.445924 2.058304 -10.481504 36.745348 0.816994 13.365662 -29.121447 6.477334 0.000000 0.000000 0.000000 0.000000 0.000000 0.000000 -0.932402 0.577705 -0.051605 -0.766094 -1.998150 -0.498190 5.059964 6.914333 2.394482 -9.354889 2.411190 -2.102854 0.000000 0.000000 0.000000 0.000000 0.000000 0.000000 0.120684 0.219951 -2.490698 -0.000000 0.000000 0.000000 -8.369784 12.046971 14.549704 0.000000 0.000000 0.000000 0.120684 0.219951 -2.490698 -0.000000 0.000000 0.000000 -0.166552 -0.114345 0.898666 0.000000 0.000000 0.000000
85.153274 71.022589 290.016138 -0.117661 -0.258760 2.597320 0.129267 0.253161 -2.597871 -0.000000 0.000000 0.000000 -0.518472 -3.736588 0.983022 0.000000 0.000000 0.000000 0.519832 0.969510 -0.171751 2.374857 -7.065181 2.194883 -9.578454 39.377141 0.809492 15.775449 -32.539025 8.550833 0.000000 0.000000 0.000000 0.000000 0.000000 0.000000 -0.730479 0.588047 0.000898 -0.869816 -1.982073 -0.523352 4.398187 7.113660 2.148064 -8.121165 1.009517 -1.933792 0.000000 0.000000 0.000000 0.000000 0.000000 0.000000 0.129267 0.253161 -2.597871 -0.000000 0.000000 0.000000 -5.035148 0.035170 4.129188 0.000000 0.000000 0.000000 0.129267 0.253161 -2.597871 -0.000000 0.000000 0.000000 -0.190588 -0.135858 1.031672 0.000000 0.000000 0.000000
